<?xml version="1.0" standalone="no"?>
<!DOCTYPE svg PUBLIC "-//W3C//DTD SVG 20010904//EN"
 "http://www.w3.org/TR/2001/REC-SVG-20010904/DTD/svg10.dtd">
<svg version="1.0" xmlns="http://www.w3.org/2000/svg"
 width="1024.000000pt" height="1024.000000pt" viewBox="0 0 1024.000000 1024.000000"
 preserveAspectRatio="xMidYMid meet">

<g transform="translate(0.000000,1024.000000) scale(0.100000,-0.100000)"
fill="#000000" stroke="none">
<path d="M3895 7329 c-660 -6 -683 -7 -867 -55 -169 -43 -371 -134 -506 -226
-168 -116 -339 -317 -431 -511 -171 -357 -185 -791 -34 -1046 77 -129 210
-245 378 -329 75 -37 298 -123 536 -206 389 -136 491 -177 537 -220 122 -110
74 -347 -93 -461 -69 -47 -139 -71 -245 -85 -43 -5 -442 -10 -931 -10 l-856 0
-116 -408 c-65 -224 -117 -411 -117 -415 0 -4 478 -6 1063 -4 1157 3 1114 1
1343 62 218 57 413 172 584 344 197 198 318 418 394 716 35 136 46 219 46 358
0 276 -82 443 -295 600 -137 100 -288 165 -900 388 -272 99 -296 110 -345 158
-34 32 -52 60 -60 90 -31 119 45 262 176 333 108 58 102 58 1198 58 l1003 0
-68 -232 c-36 -128 -94 -327 -128 -443 -57 -193 -334 -1153 -486 -1680 -35
-121 -97 -338 -139 -481 -42 -144 -76 -264 -76 -268 0 -3 230 -5 512 -4 l512
3 34 120 c19 66 119 418 223 783 104 365 189 665 189 667 0 3 329 5 731 5
l731 0 -7 -27 c-3 -16 -81 -287 -172 -603 -262 -911 -270 -940 -264 -946 3 -2
220 -4 482 -4 346 1 482 5 492 13 8 7 74 219 147 472 73 253 217 755 321 1115
103 360 224 781 269 935 244 839 410 1431 405 1442 -6 18 -969 17 -984 -1 -9
-11 -218 -727 -368 -1263 l-77 -273 -724 0 c-684 0 -723 1 -718 18 3 9 60 206
126 437 167 580 268 928 292 1007 11 37 18 71 16 75 -4 8 -1861 10 -2733 2z"/>
</g>
</svg>
